<svg width="46" height="47" viewBox="0 0 46 47" fill="none" xmlns="http://www.w3.org/2000/svg">
<rect y="0.5" width="46" height="46" rx="23" fill="#A7F65C"/>
<g clip-path="url(#clip0_134_2637)">
<path d="M21.9925 24.4208C22.8266 22.915 24.43 22.0267 25.3616 20.6942C26.3475 19.2967 25.795 16.6858 23 16.6858C21.1691 16.6858 20.27 18.0725 19.8908 19.2208L17.085 18.04C17.8541 15.7325 19.945 13.75 22.9891 13.75C25.535 13.75 27.2791 14.9092 28.1675 16.3608C28.9258 17.6067 29.37 19.9358 28.2 21.6692C26.9 23.5867 25.6541 24.1717 24.9825 25.4067C24.7116 25.905 24.6033 26.23 24.6033 27.8333H21.4725C21.4616 26.9883 21.3316 25.6125 21.9925 24.4208ZM25.1666 32.1667C25.1666 33.3583 24.1916 34.3333 23 34.3333C21.8083 34.3333 20.8333 33.3583 20.8333 32.1667C20.8333 30.975 21.8083 30 23 30C24.1916 30 25.1666 30.975 25.1666 32.1667Z" fill="#003585"/>
</g>
<defs>
<clipPath id="clip0_134_2637">
<rect width="26" height="26" fill="white" transform="translate(10 10.5)"/>
</clipPath>
</defs>
</svg>
